HIERARCHY
ROOT Hips
{
  OFFSET -32.5998 29.0326 120.673
  CHANNELS 6 Xposition Yposition Zposition Zrotation Xrotation Yrotation
  JOINT LeftUpLeg
  {
    OFFSET 8.64259 1.95398 -2.38835
    CHANNELS 3 Zrotation Xrotation Yrotation
    JOINT LeftLeg
    {
      OFFSET 43.7702 0 0
      CHANNELS 3 Zrotation Xrotation Yrotation
      JOINT LeftFoot
      {
        OFFSET 40.6238 0 0
        CHANNELS 3 Zrotation Xrotation Yrotation
        JOINT LeftToeBase
        {
          OFFSET 12.7242 0 0
          CHANNELS 3 Zrotation Xrotation Yrotation
          End Site
          {
            OFFSET 0 0 0
          }
        }
      }
    }
  }
  JOINT RightUpLeg
  {
    OFFSET -8.2249 1.95398 -2.59336
    CHANNELS 3 Zrotation Xrotation Yrotation
    JOINT RightLeg
    {
      OFFSET 43.5653 0 0
      CHANNELS 3 Zrotation Xrotation Yrotation
      JOINT RightFoot
      {
        OFFSET 40.6238 0 0
        CHANNELS 3 Zrotation Xrotation Yrotation
        JOINT RightToeBase
        {
          OFFSET 12.7242 0 0
          CHANNELS 3 Zrotation Xrotation Yrotation
          End Site
          {
            OFFSET 0 0 0
          }
        }
      }
    }
  }
  JOINT Spine
  {
    OFFSET 0.165834 0.87714 6.61349
    CHANNELS 3 Zrotation Xrotation Yrotation
    JOINT Spine1
    {
      OFFSET 7.38963 1.71661e-005 0
      CHANNELS 3 Zrotation Xrotation Yrotation
      JOINT Spine2
      {
        OFFSET 11.9445 1.14441e-005 0
        CHANNELS 3 Zrotation Xrotation Yrotation
        JOINT Spine3
        {
          OFFSET 14.7254 4.19617e-005 0
          CHANNELS 3 Zrotation Xrotation Yrotation
          JOINT Spine4
          {
            OFFSET 10.9679 0 0
            CHANNELS 3 Zrotation Xrotation Yrotation
            JOINT RightShoulder
            {
              OFFSET 2.46616 -1.6653 3.69651
              CHANNELS 3 Zrotation Xrotation Yrotation
              JOINT RightArm
              {
                OFFSET 13.0012 0 0
                CHANNELS 3 Zrotation Xrotation Yrotation
                JOINT RightForeArm
                {
                  OFFSET 28.7848 1.62311e-005 0
                  CHANNELS 3 Zrotation Xrotation Yrotation
                  JOINT RightHand
                  {
                    OFFSET 26.5688 1.62095e-005 0
                    CHANNELS 3 Zrotation Xrotation Yrotation
                    End Site
                    {
                      OFFSET 0 0 0
                    }
                  }
                }
              }
            }
            JOINT LeftShoulder
            {
              OFFSET 2.38034 -1.29275 -3.7523
              CHANNELS 3 Zrotation Xrotation Yrotation
              JOINT LeftArm
              {
                OFFSET 16.3182 6.07031e-005 0
                CHANNELS 3 Zrotation Xrotation Yrotation
                JOINT LeftForeArm
                {
                  OFFSET 27.0901 0 0
                  CHANNELS 3 Zrotation Xrotation Yrotation
                  JOINT LeftHand
                  {
                    OFFSET 24.5451 1.51738e-005 0
                    CHANNELS 3 Zrotation Xrotation Yrotation
                    End Site
                    {
                      OFFSET 0 0 0
                    }
                  }
                }
              }
            }
            JOINT Neck
            {
              OFFSET 5.0226 -0.0266342 0
              CHANNELS 3 Zrotation Xrotation Yrotation
              JOINT Head
              {
                OFFSET 6.69364 2.86102e-005 0
                CHANNELS 3 Zrotation Xrotation Yrotation
                End Site
                {
                  OFFSET 0 0 0
                }
              }
            }
          }
        }
      }
    }
  }
}
MOTION
Frames:	7
Frame Time:	0.0416667
26.6248 101.112 23.5634 -142.859 -82.1601 -143.838 -174.028 -2.92417 88.1926 -13.0539 -0.499118 -0.19662 71.2277 5.89219 -2.38275 15.0825 -9.77221 6.64209 172.279 -2.43261 87.9956 -13.3804 -9.97775 -0.589851 68.0332 -4.47735 1.27159 23.8962 0.838377 4.70661 0.468885 7.42768 -89.9921 12.0248 0.935998 -0.0863526 0.354129 0.931289 -0.127481 -22.1837 0.918675 0.198967 -2.171 0.918679 0.198966 92.1457 -27.1789 -103.427 44.4712 -24.0724 -7.31794 -12.9635 -16.8737 -24.1747 -9.61172 -0.162429 -3.3742 -87.1862 -49.4076 82.8467 -21.4041 31.8065 -16.1372 4.67455 -7.58396 -8.41412 -0.549823 -0.108929 -5.95696 1.22594 -0.454536 -2.06834 -5.72934 -0.0723003 -3.23362 
26.6208 101.046 23.5442 -142.477 -82.0738 -143.425 -173.93 -2.69961 88.2703 -13.5827 -0.566102 -0.259332 71.4772 5.8994 -2.37389 15.2225 -9.66418 6.58861 172.117 -2.68086 87.8774 -12.719 -10.029 -0.42285 68.0955 -4.76378 1.29124 23.9326 0.749947 4.95578 0.460518 7.4212 -89.9892 12.032 0.920693 -0.0789339 0.361356 0.916336 -0.119386 -22.1763 0.901847 0.201446 -2.16369 0.901846 0.201438 92.1253 -27.3847 -103.397 44.3905 -24.0082 -7.33147 -13.3906 -17.6874 -24.581 -10.2512 -0.151821 -3.61037 -87.2118 -49.2233 82.7764 -21.7404 31.6745 -16.0679 4.87928 -7.05586 -8.73534 -0.893372 -0.108411 -5.79993 1.10916 -0.488541 -2.15729 -5.88755 -0.0929538 -3.11372 
26.5976 101.063 23.5919 -142.791 -81.9853 -143.851 -173.949 -2.99278 88.1931 -13.2984 -0.601496 -0.274182 71.4232 5.83067 -2.80474 15.2735 -10.0413 7.26261 171.89 -2.69104 87.6727 -12.976 -10.3932 -0.307066 67.925 -4.54348 1.66558 24.4421 0.830296 3.95502 0.428748 7.42537 -89.9708 12.0236 0.866216 -0.0362926 0.352924 0.863784 -0.074393 -22.1844 0.837069 0.225734 -2.17179 0.837073 0.225735 92.0347 -27.2948 -103.618 44.6255 -23.6963 -7.17981 -13.1206 -17.4201 -24.2318 -10.8373 -0.239647 -2.73125 -87.1128 -49.2577 82.9325 -21.9949 31.3687 -15.9657 4.9697 -7.05568 -8.64257 -0.646414 -0.108059 -5.90921 1.14782 -0.866556 -2.65524 -5.7716 -0.393428 -3.12107 
26.507 101.11 23.6435 -142.489 -82.1148 -143.482 -173.889 -3.04842 88.3381 -12.959 -0.599133 -0.283122 71.3348 5.84596 -2.86605 15.166 -10.0617 7.19896 171.868 -2.47109 87.7998 -13.3914 -10.4364 -0.204718 68.2239 -4.75169 1.09446 23.5809 0.967562 4.70517 0.421808 7.40925 -89.965 12.0558 0.855122 -0.0238695 0.385116 0.853245 -0.0614861 -22.1522 0.822763 0.23425 -2.13954 0.822764 0.234252 92.1667 -27.2489 -103.358 44.8839 -23.8212 -7.03457 -13.2102 -18.1681 -24.1388 -11.0914 -0.235245 -2.82137 -87.2606 -49.3395 82.7225 -21.8556 31.6385 -15.8138 4.77717 -7.57647 -8.70847 -0.929728 -0.108479 -6.04868 1.14406 -2.62016 -4.08696 -4.84141 -1.93645 -3.47622 
26.4528 101.09 23.7155 -142.305 -82.094 -143.294 -173.842 -3.03389 88.3914 -13.1034 -0.541598 -0.309354 71.4156 5.89023 -2.68031 15.0959 -9.80571 6.70993 171.941 -2.65604 87.8922 -13.182 -10.2757 -0.251378 68.3755 -4.92963 0.898182 23.2107 1.00977 5.07603 0.431959 7.41901 -89.9465 12.0361 0.884051 0.0100759 0.365507 0.883637 -0.0288549 -22.1719 0.840147 0.275331 -2.15925 0.84014 0.275311 92.1682 -27.3245 -103.329 44.7052 -23.9657 -6.765 -12.9682 -16.9512 -24.2876 -10.1586 -0.130968 -3.84979 -87.186 -49.2187 82.8149 -21.3852 32.4807 -15.8404 4.42623 -8.22081 -9.10031 -0.786914 -0.111235 -5.86626 1.0637 -6.44571 -6.11776 -3.9724 -5.44107 -4.4549 
26.4374 101.048 23.7599 -142.641 -82.3086 -143.628 -173.946 -2.71294 88.3313 -13.4822 -0.586732 -0.196745 71.6045 5.91912 -2.6581 15.1201 -9.84351 6.79471 172.076 -2.63949 87.8999 -12.7683 -9.71526 -0.333868 68.0024 -4.6493 1.66496 24.5757 0.55508 4.72598 0.395349 7.40962 -89.9053 12.0545 0.830755 0.0980113 0.383861 0.83426 0.0613488 -22.1531 0.762889 0.343174 -2.1405 0.762888 0.343165 91.8067 -27.6105 -103.981 44.5186 -23.7364 -6.54156 -12.9267 -16.5576 -24.3117 -9.85715 -0.147472 -3.60651 -87.1689 -49.1863 82.835 -21.3775 32.0225 -15.6073 4.54039 -8.22689 -8.78112 -0.548098 -0.119521 -6.19921 -0.402134 -12.045 -9.81252 -1.51876 -10.6806 -5.34889 
26.3927 101.052 23.8822 -143.799 -82.3643 -144.704 -173.896 -2.83245 88.4686 -13.4768 -0.423529 -0.174439 71.7005 5.966 -2.91256 15.2085 -9.8451 6.87792 172.013 -2.81405 88.0045 -12.8571 -9.93272 -0.220383 68.1423 -4.79015 1.18174 23.9235 0.8699 4.55914 0.368819 7.43888 -89.9134 11.9961 0.774197 0.0886253 0.325343 0.777342 0.0544622 -22.2114 0.711759 0.317212 -2.19878 0.711764 0.317212 91.8883 -26.9327 -104.054 45.1045 -23.6754 -6.56751 -13.0876 -16.911 -24.3841 -10.0109 -0.156662 -3.51672 -87.0794 -49.589 83.0389 -20.9754 32.2347 -15.5659 4.46843 -8.36399 -9.01679 0.230954 -0.127189 -5.98197 -1.70523 -18.4344 -13.4047 0.0469288 -16.825 -7.05689 
